<svg version="1.0" xmlns="http://www.w3.org/2000/svg" width="64" height="64" viewBox="0 0 752 752"><path d="M356.1 140.8c-5.1 2.6-7.6 6.5-7.6 12.1 0 2.7.7 5.8 1.7 7.3.9 1.4 6.6 5.9 12.5 10.1 35.5 24.5 53.9 49.7 67.8 92.7 8.2 25.6 8.5 27.6 8.5 65.2V362h-41.9l-.6-5.8c-3.4-30.7-19.7-57.9-44.7-74.5-9.8-6.5-16.5-9.7-28.7-13.4-8-2.5-9.9-2.7-27.1-2.7-17.3 0-19.1.2-27.3 2.7-18.1 5.6-31.5 13.4-43.8 25.7-12.9 12.9-22.6 29.9-27.1 47.6-2.3 8.9-2.3 9.3-2.3 80.9 0 71.8 0 72 2.3 82.4 16.4 72.9 84.2 118.3 157.8 105.6 47.1-8.2 88.3-44.2 103.9-90.8 6.3-18.7 6.7-23.7 7.2-79.5l.5-50.2H529v8c0 9.1 1.5 13.7 5.5 16.8 5.7 4.5 13.7 3.7 19.1-1.9l2.9-3v-67.8l-2.9-3c-5.4-5.6-13.4-6.4-19.1-1.9-4 3.1-5.5 7.7-5.5 16.8v8h-62v-35.6c0-32.6.2-36.2 2.1-43.7 7.5-29.9 17.9-54.3 30.6-71.9 10.1-14 27.1-30 44.3-41.6 10.3-6.9 12.2-9.1 12.7-14.9.4-3.9 0-5.5-1.9-8.3-5-7.4 1.6-7-102.3-7-86.6 0-93.2.1-96.4 1.8zm138.3 33.4c-17.7 18.3-27.7 34-40.5 63.6l-1.4 3.3-3.4-8.3c-9.1-22.7-20.5-40.1-38-58.1l-7.6-7.7h97.9l-7 7.2zM314.8 295.1c20.7 5.2 40 21.9 48.4 42 2.5 6 5.8 19.2 5.8 23.4 0 1-5.1 1.4-23.7 1.7-22.4.4-24.3.6-31.8 3.1-21 7-36.8 22.1-44.8 42.9l-3.2 8.3-.3 34c-.2 22.6 0 36 .8 40 .6 3.3 3.2 10.3 5.7 15.5 8.5 17.7 26 31.6 44.8 35.5 29.7 6.2 59.3-7.7 73-34.5 7.1-13.9 6.9-12.2 7.3-67.3l.3-49.7H439v44.5c0 25-.5 48.8-1.1 54.2-2 17.7-7.6 33-17.6 48.2-33.1 49.7-99.6 62.7-150 29.4-7.6-5-20.2-17.1-26.4-25.2-6.9-9.2-14.4-24.8-17.6-36.6l-2.7-10-.4-68.9c-.3-66.4-.2-69.1 1.7-77 3.3-12.9 8.9-23.2 18-32.8 19.1-20.2 44.8-27.5 71.9-20.7zm54 143.2-.3 48.2-3.2 6.6c-3.9 8-11.1 15-19.1 18.7-5 2.4-6.9 2.7-15.7 2.7-9 0-10.6-.3-16-2.9-11.8-5.8-19.7-16.8-21.6-29.9-1.1-8.1-1.1-47.4.1-55.5 1.7-12.4 9.8-24.5 20.4-30.7 7.6-4.5 13.5-5.4 35.4-5.4l20.3-.1-.3 48.3z"/></svg>
